<svg width="84" height="56" viewBox="0 0 84 56" fill="none" xmlns="http://www.w3.org/2000/svg">
<rect width="83.244" height="56" fill="black"/>
<path d="M20.501 26.4901C20.1166 25.0538 19.7027 23.7425 19.2593 22.5562H14.0837L12.6226 26.4901H12L16.1391 15.5234L17.3808 12.0034H17.7947C18.8725 14.9963 19.6248 17.0658 20.0517 18.212C20.4786 19.3582 20.9066 20.4313 21.3359 21.4313C21.7627 22.4336 22.5139 24.1211 23.5894 26.4936L20.501 26.4901ZM19.0859 22.1423C18.7534 21.2721 18.2699 20.1754 17.6355 18.8523C17.1945 17.9537 16.8088 17.1118 16.4787 16.3264L14.2853 22.1423H19.0859Z" fill="white"/>
<path d="M34.5561 22.6377C34.7395 23.57 34.8331 24.5177 34.8356 25.4678C34.8356 25.7438 34.8356 25.9702 34.8143 26.1506C34.7931 26.331 34.7931 26.4478 34.7931 26.5044H31.8958C31.9463 26.1825 31.9735 25.8573 31.9771 25.5315C31.969 24.6566 31.8682 23.785 31.6764 22.9313C31.5346 22.1491 31.2581 21.3974 30.8592 20.7097C30.5447 20.2254 30.1499 19.7983 29.6918 19.4468C29.2676 19.0773 28.7293 18.865 28.1671 18.8454H27.548C27.548 21.0104 27.5692 22.4797 27.6117 23.2533C27.6541 24.0268 27.772 25.1105 27.9654 26.5044H24.8594C24.9584 24.903 25.0351 23.5021 25.0893 22.3016C25.1436 21.1012 25.1707 20.0871 25.1707 19.2593C25.1707 18.4315 25.1436 17.4173 25.0893 16.2169C25.0327 15.0141 24.9584 13.6167 24.8594 12.0142H30.8734C31.3571 12.0457 31.8337 12.147 32.2884 12.3149C32.939 12.5309 33.531 12.8941 34.0184 13.3762C34.2915 13.6595 34.5031 13.9961 34.6401 14.365C34.777 14.7339 34.8364 15.1271 34.8143 15.52C34.8143 16.5813 34.4606 17.3595 33.7884 17.8477C33.1469 18.3184 32.4085 18.6399 31.6269 18.7888C31.9935 18.9483 32.3401 19.1502 32.6599 19.3902C33.0068 19.6389 33.3144 19.9382 33.5726 20.2781C34.0794 20.9775 34.4162 21.7854 34.5561 22.6377V22.6377ZM29.5043 18.435C29.874 18.4505 30.243 18.3914 30.5895 18.2613C30.9359 18.1313 31.2526 17.9329 31.5208 17.6779C31.7917 17.3945 32.0007 17.058 32.1347 16.6895C32.2687 16.3211 32.3246 15.9289 32.2991 15.5377C32.2991 14.5011 32.016 13.7299 31.45 13.217C30.9028 12.7143 30.1836 12.4408 29.4406 12.4528C28.9168 12.4383 28.3999 12.5746 27.9513 12.8455C27.7809 13.6626 27.6628 14.4897 27.5975 15.3219C27.548 16.0483 27.5232 16.9492 27.5232 18.0246C28.1519 18.2848 28.824 18.424 29.5043 18.435V18.435Z" fill="white"/>
<path d="M44.7156 26.4902C43.8878 25.2072 43.2911 24.3028 42.9255 23.7768C42.56 23.2509 42.1425 22.7132 41.6732 22.1637C41.2015 21.6118 40.3879 20.6873 39.2322 19.3902C39.2322 20.2038 39.2594 21.2003 39.3136 22.3795C39.3679 23.5587 39.4445 24.9289 39.5436 26.4902H36.4375C36.5318 24.8888 36.6073 23.4879 36.6639 22.2875C36.7205 21.0871 36.7488 20.0729 36.7488 19.2451C36.7488 18.4173 36.7205 17.4032 36.6639 16.2027C36.6108 14.9999 36.533 13.6026 36.4375 12H39.5436C39.3478 15.4221 39.244 17.672 39.2322 18.7498L46.3712 12H46.9938L40.9798 17.8584C42.5128 19.955 43.5741 21.3701 44.1637 22.1035C44.7533 22.837 45.9785 24.2969 47.8393 26.4831L44.7156 26.4902Z" fill="white"/>
<path d="M23.7905 33.0665C23.7339 34.2658 23.7091 35.2775 23.7091 36.1089C23.7091 36.9402 23.7339 37.9485 23.7905 39.1513C23.8471 40.3541 23.9214 41.7514 24.0169 43.3504H20.9144C21.0099 41.808 21.0877 40.446 21.1408 39.2751C21.1939 38.1041 21.2257 37.1136 21.2257 36.3141H14.8084C14.8084 37.1136 14.8355 38.1006 14.8898 39.2751C14.9464 40.446 15.0207 41.808 15.1197 43.3504H12.0137C12.1104 41.7514 12.1858 40.3517 12.2401 39.1513C12.2967 37.9485 12.325 36.9367 12.325 36.1089C12.325 35.2811 12.2967 34.2658 12.2401 33.0665C12.1835 31.8672 12.1092 30.4628 12.0137 28.8638H15.1197L15.0985 29.2989C15.0702 29.714 15.0183 30.6574 14.9428 32.129C14.8686 33.5936 14.8226 34.7858 14.8084 35.7127H21.2257C21.2257 34.7858 21.1656 33.5901 21.0913 32.129C21.017 30.668 20.9604 29.7305 20.9356 29.2989L20.9144 28.8638H24.0169C23.9226 30.4628 23.8471 31.8637 23.7905 33.0665Z" fill="white"/>
<path d="M33.6643 32.9392C34.5442 33.3503 35.2827 34.0125 35.7869 34.8425C36.3356 35.8525 36.6271 36.9821 36.6358 38.1316C36.6444 39.281 36.3699 40.4149 35.8365 41.4331C35.3484 42.2578 34.6287 42.9209 33.7669 43.3399C32.9163 43.7467 31.9891 43.9685 31.0465 43.9908C30.0473 43.9752 29.063 43.7461 28.1598 43.3187C27.2791 42.8987 26.5411 42.2296 26.0372 41.3942C25.4818 40.4272 25.2062 39.3249 25.2412 38.2103C25.1936 37.0415 25.4954 35.885 26.1079 34.8884C26.6437 34.0513 27.4087 33.3858 28.3119 32.971C29.1654 32.5798 30.0973 32.3897 31.0359 32.4156C31.9409 32.3819 32.8413 32.5613 33.6643 32.9392V32.9392ZM29.214 33.6467C28.7635 34.1514 28.4718 34.7778 28.3756 35.4474C28.2158 36.4189 28.1435 37.4028 28.1598 38.3872C28.1428 39.2816 28.2079 40.1756 28.3543 41.0581C28.4536 41.6726 28.7431 42.2406 29.1821 42.6819C29.7037 43.128 30.3709 43.3672 31.0571 43.354C31.7163 43.382 32.3599 43.148 32.8471 42.7031C33.2566 42.2596 33.5176 41.6994 33.5936 41.1006C33.7099 40.201 33.7608 39.2941 33.7457 38.3872C33.7651 37.3431 33.7072 36.299 33.5724 35.2634C33.5025 34.6368 33.2334 34.049 32.8047 33.5866C32.3011 33.1619 31.6501 32.9534 30.9934 33.0064C30.6687 32.9849 30.343 33.0306 30.0368 33.1408C29.7306 33.251 29.4505 33.4232 29.214 33.6467V33.6467Z" fill="white"/>
<path d="M48.2575 43.3718C48.4253 43.3644 48.5884 43.3145 48.7316 43.2267C48.8989 43.1401 49.0587 43.0395 49.2091 42.926L49.478 42.7315V43.1454C49.478 43.1737 49.3931 43.255 49.2198 43.393C48.9981 43.5579 48.7538 43.6902 48.4946 43.7857C48.1477 43.9165 47.7791 43.9801 47.4085 43.9732C47.0984 43.9984 46.7863 43.9609 46.491 43.863C46.1956 43.7652 45.9229 43.609 45.6892 43.4036C45.5137 43.2365 45.3737 43.0357 45.2777 42.8132C45.1816 42.5908 45.1315 42.3512 45.1302 42.1088V42.0487C44.7746 42.6133 44.2895 43.0851 43.7152 43.4249C43.0113 43.816 42.2133 44.0058 41.4086 43.9732C40.6839 44.0258 39.9645 43.8161 39.3816 43.3824C38.924 42.9882 38.6104 42.4531 38.4901 41.8612C38.3393 41.0983 38.2706 40.3215 38.2849 39.544L38.3061 37.9698C38.3061 37.1703 38.2743 36.3873 38.2106 35.6208C38.1504 34.8567 38.0868 34.2057 38.0266 33.7281C37.9665 33.2506 37.917 32.9216 37.8887 32.7942H41.2034C41.1385 33.0105 41.0993 33.2338 41.0867 33.4593C41.0124 33.9828 40.9417 34.7222 40.8815 35.6738C40.8214 36.6255 40.7895 37.7964 40.7895 39.2115C40.7772 40.01 40.8114 40.8085 40.8921 41.603C40.9255 42.0671 41.0818 42.514 41.345 42.8977C41.4792 43.0552 41.649 43.1784 41.8403 43.2572C42.0316 43.3359 42.239 43.3679 42.4452 43.3506C42.7651 43.3506 43.0812 43.2802 43.371 43.1445C43.6608 43.0088 43.9172 42.811 44.122 42.5652C44.5957 42.0305 44.9792 41.4224 45.2576 40.7645C45.3142 40.241 45.3425 39.8624 45.3425 39.6254C45.3425 38.0948 45.3106 36.8224 45.247 35.8083C45.1868 34.793 45.1161 34.0147 45.0418 33.4699C44.9675 32.9251 44.9286 32.6987 44.9286 32.7942H48.2398C48.2398 32.6987 48.2009 32.9251 48.1266 33.4699C48.0523 34.0147 47.9816 34.793 47.9179 35.8083C47.8542 36.8236 47.8259 38.0936 47.8259 39.6254V42.7315C47.8224 43.1595 47.9674 43.3718 48.2575 43.3718Z" fill="white"/>
<path d="M57.3323 32.7025C57.8599 32.8775 58.3646 33.1151 58.8358 33.41C59.0448 33.5272 59.2385 33.6698 59.4124 33.8345C59.3606 33.9737 59.2426 34.2602 59.0587 34.6942C58.8721 35.1287 58.6509 35.5475 58.3971 35.9465C58.1389 36.3462 57.9019 36.5444 57.6896 36.5444C57.6099 36.5386 57.5338 36.5092 57.4708 36.4601C57.4078 36.411 57.3609 36.3443 57.3358 36.2684C57.2047 35.9695 57.0971 35.6608 57.0139 35.3451C56.8972 34.9101 56.7482 34.4844 56.5682 34.0715C56.4065 33.7204 56.164 33.4125 55.8606 33.173C55.5171 32.9114 55.0927 32.7786 54.6614 32.798C54.4384 32.7753 54.2131 32.8025 54.0019 32.8777C53.7907 32.9529 53.599 33.0742 53.4405 33.2327C53.282 33.3912 53.1607 33.583 53.0855 33.7941C53.0103 34.0053 52.9831 34.2306 53.0058 34.4536C52.9845 34.9208 53.1314 35.3801 53.4197 35.7484C53.6953 36.0882 54.045 36.3605 54.4421 36.5444C54.9776 36.7904 55.5268 37.0054 56.087 37.1882C56.6841 37.3759 57.2689 37.6004 57.8382 37.8604C58.279 38.0683 58.6653 38.3759 58.9667 38.7589C59.282 39.1911 59.4417 39.7173 59.4195 40.2518C59.4227 40.906 59.2398 41.5477 58.8924 42.102C58.5459 42.6721 58.0586 43.1436 57.4773 43.4711C56.8731 43.8082 56.1917 43.9825 55.4998 43.977C54.795 43.9652 54.0951 43.8569 53.4197 43.655C52.6988 43.4614 51.99 43.2252 51.2971 42.9475C50.6497 42.6857 50.3242 42.5477 50.3242 42.5336C50.4053 42.249 50.5022 41.9691 50.6143 41.6952C50.7886 41.2175 51.0065 40.7568 51.2652 40.319C51.5058 39.9193 51.7463 39.7601 51.9728 39.845C52.1277 39.9094 52.2604 40.0176 52.3548 40.1563C52.5522 40.4149 52.7353 40.6842 52.9032 40.9629C53.3376 41.6501 53.8453 42.2883 54.4173 42.8661C54.6376 43.092 54.9013 43.2711 55.1924 43.3926C55.4836 43.5142 55.7963 43.5758 56.1118 43.5737C56.3362 43.5797 56.5591 43.5366 56.7651 43.4474C56.971 43.3582 57.155 43.225 57.304 43.0572C57.5969 42.7497 57.7624 42.3427 57.7674 41.918C57.7657 41.6678 57.6998 41.4222 57.5759 41.2048C57.452 40.9873 57.2743 40.8054 57.0599 40.6763C56.353 40.2315 55.6041 39.8571 54.8241 39.5584C54.0788 39.2401 53.468 38.957 52.9916 38.7094C52.5341 38.476 52.1181 38.1689 51.7605 37.8002C51.4231 37.4593 51.2111 37.0141 51.1591 36.5373L51.1379 36.2472C51.1487 35.6721 51.2763 35.1052 51.5129 34.581C51.7923 33.9569 52.2439 33.4255 52.8147 33.0492C53.5535 32.5825 54.4183 32.3552 55.2911 32.3982C55.9836 32.386 56.6734 32.4888 57.3323 32.7025Z" fill="white"/>
<path d="M68.4041 36.9264L64.0705 39.661C64.4026 40.6446 64.9883 41.5232 65.7686 42.2081C66.4057 42.8001 67.2375 43.1386 68.107 43.1597C68.4968 43.1657 68.8867 43.148 69.2744 43.1066C69.561 43.0679 69.838 42.9767 70.0916 42.8378C70.4288 42.6479 70.7364 42.4095 71.0043 42.1302L71.2095 42.339C70.9772 42.5722 70.7327 42.793 70.4772 43.0005C70.0553 43.2809 69.5938 43.4968 69.1081 43.6408C68.3166 43.8958 67.4878 44.0154 66.6565 43.9946C65.5042 44.0413 64.3595 43.7878 63.3347 43.2588C62.519 42.8184 61.8611 42.1345 61.4527 41.3025C61.0518 40.4635 60.8497 39.5435 60.8618 38.6138C60.8563 37.5737 61.0785 36.5449 61.5128 35.5998C61.9484 34.6547 62.6457 33.8542 63.5222 33.2932C64.5239 32.6725 65.6875 32.3634 66.8653 32.4052C67.788 32.3643 68.706 32.5591 69.5326 32.9713C70.1041 33.2602 70.5915 33.6915 70.9477 34.2236C71.2166 34.68 71.3015 34.9701 71.2059 35.0939C70.3047 35.7533 69.3694 36.3649 68.4041 36.9264ZM67.8487 33.4984C67.5374 33.0314 67.0032 32.7909 66.2426 32.7909C65.878 32.7925 65.5185 32.8763 65.1908 33.0362C64.8631 33.1961 64.5757 33.4278 64.35 33.7142C63.817 34.325 63.5505 35.3285 63.5505 36.7247C63.5486 37.5455 63.6678 38.362 63.9042 39.148C64.9684 38.6026 65.9767 37.9545 66.9148 37.2129C67.8487 36.4736 68.3121 35.7165 68.3121 34.9453C68.3043 34.4277 68.143 33.9242 67.8487 33.4984V33.4984Z" fill="white"/>
</svg>
